# xmcd CD database file
#
# Track frame offsets:
#	150
#	13437
#	26671
#	41348
#	55601
#	69869
#	84149
#	102497
#	117311
#	131818
#	145524
#	157619
#
# Disc length: 2288 seconds
#
# Revision: 0
# Processed by: cddbd v1.4PL0 Copyright (c) Steve Scherf et al.
# Submitted via: CDex 1.50beta10
#
DISCID=8f08ee0c
DTITLE=Tonny Aabo - Tuesday night in Nashville
DYEAR=2003
DGENRE=Country
TTITLE0=The sweetest little sweetheart
TTITLE1=Tuesday night in Nashville
TTITLE2=Lucky me lucky you
TTITLE3=Crazy California
TTITLE4=Seven Days
TTITLE5=Dammed if you do
TTITLE6=Henderson Road
TTITLE7=Call me Crazy
TTITLE8=Yankie doodle dandy
TTITLE9=He´s a V.I.P.
TTITLE10=Friday night 8 o´clock
TTITLE11=I can´t wait till you get home
EXTD=YEAR: 2003
EXTT0=
EXTT1=
EXTT2=
EXTT3=
EXTT4=
EXTT5=
EXTT6=
EXTT7=
EXTT8=
EXTT9=
EXTT10=
EXTT11=
PLAYORDER=
